<?xml version="1.0" standalone="no"?>
<svg xmlns:xlink="http://www.w3.org/1999/xlink" id="wave" style="transform:rotate(0deg); transition: 0.3s" viewBox="0 0 1440 490" version="1.1" xmlns="http://www.w3.org/2000/svg"><defs><linearGradient id="sw-gradient-0" x1="0" x2="0" y1="1" y2="0"><stop stop-color="rgba(80.645, 175.415, 239.433, 1)" offset="0%"/><stop stop-color="rgba(238.868, 114.444, 239.433, 1)" offset="100%"/></linearGradient></defs><path style="transform:translate(0, 0px); opacity:1" fill="url(#sw-gradient-0)" d="M0,294L80,302.2C160,310,320,327,480,285.8C640,245,800,147,960,122.5C1120,98,1280,147,1440,155.2C1600,163,1760,131,1920,114.3C2080,98,2240,98,2400,114.3C2560,131,2720,163,2880,220.5C3040,278,3200,359,3360,375.7C3520,392,3680,343,3840,294C4000,245,4160,196,4320,171.5C4480,147,4640,147,4800,171.5C4960,196,5120,245,5280,285.8C5440,327,5600,359,5760,359.3C5920,359,6080,327,6240,318.5C6400,310,6560,327,6720,343C6880,359,7040,376,7200,375.7C7360,376,7520,359,7680,294C7840,229,8000,114,8160,106.2C8320,98,8480,196,8640,204.2C8800,212,8960,131,9120,147C9280,163,9440,278,9600,285.8C9760,294,9920,196,10080,171.5C10240,147,10400,196,10560,187.8C10720,180,10880,114,11040,122.5C11200,131,11360,212,11440,253.2L11520,294L11520,490L11440,490C11360,490,11200,490,11040,490C10880,490,10720,490,10560,490C10400,490,10240,490,10080,490C9920,490,9760,490,9600,490C9440,490,9280,490,9120,490C8960,490,8800,490,8640,490C8480,490,8320,490,8160,490C8000,490,7840,490,7680,490C7520,490,7360,490,7200,490C7040,490,6880,490,6720,490C6560,490,6400,490,6240,490C6080,490,5920,490,5760,490C5600,490,5440,490,5280,490C5120,490,4960,490,4800,490C4640,490,4480,490,4320,490C4160,490,4000,490,3840,490C3680,490,3520,490,3360,490C3200,490,3040,490,2880,490C2720,490,2560,490,2400,490C2240,490,2080,490,1920,490C1760,490,1600,490,1440,490C1280,490,1120,490,960,490C800,490,640,490,480,490C320,490,160,490,80,490L0,490Z"/></svg>