<?xml version="1.0" standalone="no"?>
<svg xmlns:xlink="http://www.w3.org/1999/xlink" id="wave" style="transform:rotate(180deg); transition: 0.3s" viewBox="0 0 1440 490" version="1.1" xmlns="http://www.w3.org/2000/svg"><defs><linearGradient id="sw-gradient-0" x1="0" x2="0" y1="1" y2="0"><stop stop-color="rgba(167.252, 135.257, 189.293, 1)" offset="0%"/><stop stop-color="rgba(166.526, 84.203, 147.121, 1)" offset="100%"/></linearGradient></defs><path style="transform:translate(0, 0px); opacity:1" fill="url(#sw-gradient-0)" d="M0,98L80,155.2C160,212,320,327,480,351.2C640,376,800,310,960,269.5C1120,229,1280,212,1440,220.5C1600,229,1760,261,1920,302.2C2080,343,2240,392,2400,375.7C2560,359,2720,278,2880,204.2C3040,131,3200,65,3360,32.7C3520,0,3680,0,3840,49C4000,98,4160,196,4320,196C4480,196,4640,98,4800,73.5C4960,49,5120,98,5280,138.8C5440,180,5600,212,5760,187.8C5920,163,6080,82,6240,89.8C6400,98,6560,196,6720,196C6880,196,7040,98,7200,65.3C7360,33,7520,65,7680,89.8C7840,114,8000,131,8160,179.7C8320,229,8480,310,8640,302.2C8800,294,8960,196,9120,163.3C9280,131,9440,163,9600,155.2C9760,147,9920,98,10080,89.8C10240,82,10400,114,10560,122.5C10720,131,10880,114,11040,138.8C11200,163,11360,229,11440,261.3L11520,294L11520,490L11440,490C11360,490,11200,490,11040,490C10880,490,10720,490,10560,490C10400,490,10240,490,10080,490C9920,490,9760,490,9600,490C9440,490,9280,490,9120,490C8960,490,8800,490,8640,490C8480,490,8320,490,8160,490C8000,490,7840,490,7680,490C7520,490,7360,490,7200,490C7040,490,6880,490,6720,490C6560,490,6400,490,6240,490C6080,490,5920,490,5760,490C5600,490,5440,490,5280,490C5120,490,4960,490,4800,490C4640,490,4480,490,4320,490C4160,490,4000,490,3840,490C3680,490,3520,490,3360,490C3200,490,3040,490,2880,490C2720,490,2560,490,2400,490C2240,490,2080,490,1920,490C1760,490,1600,490,1440,490C1280,490,1120,490,960,490C800,490,640,490,480,490C320,490,160,490,80,490L0,490Z"/></svg>