<?xml version="1.0" encoding="utf-8"?><svg xmlns="http://www.w3.org/2000/svg" xmlns:xlink="http://www.w3.org/1999/xlink" width="1536" height="739" preserveAspectRatio="xMidYMid" viewBox="0 0 1536 739" style="z-index:1;margin-right:-1.6px;display:block;background-color:rgb(255, 255, 255);animation-play-state:paused" ><g transform="translate(768,369.5) scale(1,1) translate(-768,-369.5)" style="transform:matrix(1, 0, 0, 1, 0, 0);animation-play-state:paused" ><linearGradient id="lg-0.15720421162336762" x1="0" x2="1" y1="0" y2="0" style="animation-play-state:paused" ><stop stop-color="#ff00ff" offset="0" style="animation-play-state:paused" ></stop>

  
<stop stop-color="#00ffff" offset="1" style="animation-play-state:paused" ></stop></linearGradient>
<path d="M 0 0 L 0 646.094 Q 153.6 655.441 307.2 631.197 T 614.4 524.901 T 921.6 398.817 T 1228.8 383.477 T 1536 243.995 L 1536 0 Z" fill="url(#lg-0.15720421162336762)" opacity="0.4" style="opacity:0.4;animation-play-state:paused" ></path>
<path d="M 0 0 L 0 657.365 Q 153.6 609.265 307.2 574.561 T 614.4 554.29 T 921.6 481.019 T 1228.8 347.199 T 1536 361.327 L 1536 0 Z" fill="url(#lg-0.15720421162336762)" opacity="0.4" style="opacity:0.4;animation-play-state:paused" ></path>
<path d="M 0 0 L 0 622.564 Q 153.6 616.204 307.2 590.965 T 614.4 490.775 T 921.6 514.379 T 1228.8 420.061 T 1536 373.298 L 1536 0 Z" fill="url(#lg-0.15720421162336762)" opacity="0.4" style="opacity:0.4;animation-play-state:paused" ></path>
<path d="M 0 0 L 0 684.14 Q 153.6 681.053 307.2 644.342 T 614.4 590.25 T 921.6 504.151 T 1228.8 442.98 T 1536 314.05 L 1536 0 Z" fill="url(#lg-0.15720421162336762)" opacity="0.4" style="opacity:0.4;animation-play-state:paused" ></path>
<path d="M 0 0 L 0 716.556 Q 153.6 657.466 307.2 617.488 T 614.4 476.885 T 921.6 439.165 T 1228.8 353.656 T 1536 317.415 L 1536 0 Z" fill="url(#lg-0.15720421162336762)" opacity="0.4" style="opacity:0.4;animation-play-state:paused" ></path></g></svg>